<svg xmlns="http://www.w3.org/2000/svg" width="259.93" height="39.072"><defs><style>.a{fill:#35828D}</style></defs><path class="a" d="M157.955 19.066a18.427 18.427 0 014.985-12.551A18.565 18.565 0 01176.834.672a18.655 18.655 0 019.295 2.2 14.423 14.423 0 015.862 5.851l-7.752 5.526a6.534 6.534 0 00-1.382-2.237 7.012 7.012 0 00-1.9-1.4 8.156 8.156 0 00-2.161-.726 11.873 11.873 0 00-2.161-.207 7.583 7.583 0 00-6.374 3.1 9.679 9.679 0 00-1.507 3.125 12.625 12.625 0 00-.491 3.463 11.9 11.9 0 00.576 3.7 9.646 9.646 0 001.669 3.122 8.127 8.127 0 002.684 2.158 7.755 7.755 0 003.566.8 10.13 10.13 0 002.134-.237 7.918 7.918 0 002.108-.782 7.111 7.111 0 001.82-1.407 6.228 6.228 0 001.273-2.11l8.283 4.938a10.55 10.55 0 01-2.522 3.647 16.055 16.055 0 01-3.849 2.711 20.442 20.442 0 01-4.632 1.67 21.3 21.3 0 01-4.815.577 17.116 17.116 0 01-7.525-1.633 19.046 19.046 0 01-5.886-4.341 19.754 19.754 0 01-3.832-6.14 18.866 18.866 0 01-1.36-6.974zM219.899 12.918a28.436 28.436 0 00-3.228-1.663 29.73 29.73 0 00-3.151-1.168 11.379 11.379 0 00-3.411-.543 4.732 4.732 0 00-2.16.418 1.456 1.456 0 00-.806 1.407 1.622 1.622 0 00.47 1.2 4.425 4.425 0 001.355.858 16.967 16.967 0 002.161.753q1.276.362 2.89.882a37.821 37.821 0 014.609 1.713 14.321 14.321 0 013.516 2.209 8.517 8.517 0 012.242 3.1 11.224 11.224 0 01.785 4.424 11.66 11.66 0 01-1.218 5.6 10.023 10.023 0 01-3.224 3.62 13.589 13.589 0 01-4.526 1.957 21.98 21.98 0 01-5.076.6 28.722 28.722 0 01-4.165-.309 35.791 35.791 0 01-4.244-.881 36.878 36.878 0 01-4.063-1.35 25.777 25.777 0 01-3.619-1.766l4.364-8.908a30.431 30.431 0 003.8 2.027 26.941 26.941 0 003.776 1.4 15.038 15.038 0 004.3.62 4.373 4.373 0 002.317-.444 1.355 1.355 0 00.649-1.172 1.678 1.678 0 00-.651-1.327 5.961 5.961 0 00-1.8-.962q-1.146-.415-2.63-.83t-3.15-.986a27.052 27.052 0 01-4.219-1.792 11.434 11.434 0 01-2.918-2.184 7.821 7.821 0 01-1.695-2.783 10.885 10.885 0 01-.55-3.592 12.417 12.417 0 011.114-5.415 11.109 11.109 0 013.042-3.907 13.591 13.591 0 014.4-2.373 16.75 16.75 0 015.232-.812 19.87 19.87 0 013.956.387 31.877 31.877 0 013.723.985 35.764 35.764 0 013.358 1.3q1.563.7 2.813 1.325zM259.93 9.652l-10.619.01.027 28.113-10.152.01-.027-28.113-10.673.01-.008-8.85 31.444-.03zM120.487 37.426L120.451.205l-37.4.036.025 25.594.011 11.626 37.4-.036zm-3.416-33.831l.029 30.446h-.016L86.458 3.626zM19.415 38.831A19.416 19.416 0 0119.396 0h.018a19.416 19.416 0 01.019 38.831h-.019zm0-30.366h-.011a10.95 10.95 0 00.011 21.9h.01a10.95 10.95 0 00-.01-21.9z"></path><path fill="none" stroke="#35828D" stroke-miterlimit="10" stroke-width="2" d="M140.6 1.614l.034 35.14"></path><path class="a" d="M52.199 39.063l-9.933.009-.027-28.77A9.859 9.859 0 0151.873.233L79.45.207l.01 10.361c.016 15.723-12.19 28.481-27.261 28.495"></path></svg>